# Blender 4.4.0
# www.blender.org
mtllib cap.mtl
o Cap
v -6.275834 24.738672 0.000001
v -15.613386 17.197010 -0.000016
v -21.015047 7.758008 -0.000009
v -20.949591 3.396924 -0.000015
v -18.339947 1.349854 -0.000028
v -10.786770 0.280493 -0.000017
v -5.166802 20.209766 -8.062525
v -0.228702 21.649145 -8.062538
v -12.514000 14.275635 -8.062536
v -16.764265 6.848608 -8.062524
v -16.712742 3.417139 -8.062536
v -14.659374 1.806396 -8.062536
v -8.716204 0.964990 -8.062537
v -0.228705 0.744214 -8.062538
v 14.201983 1.806445 -8.062515
v 16.255342 3.417163 -8.062528
v 16.306858 6.848633 -8.062528
v 12.056582 14.275660 -8.062528
v 4.709376 20.209766 -8.062539
v 8.258812 0.964990 -8.062527
v -0.228707 7.173584 -12.719361
v -5.990541 22.714331 -4.480298
v -0.228701 24.374950 -4.486378
v -14.544542 15.779444 -4.487438
v -19.391043 7.126953 -4.517345
v -19.313040 3.154517 -4.522533
v -16.977192 1.274292 -4.509154
v -10.209021 0.202954 -4.438061
v -0.228705 -0.219531 -4.320105
v 16.519808 1.274341 -4.509134
v 18.855648 3.154566 -4.522513
v 18.933645 7.126977 -4.517350
v 14.087120 15.779468 -4.487430
v 5.533114 22.714331 -4.480312
v 9.751635 0.202954 -4.438052
v -3.002208 14.320435 -11.676528
v -0.228704 15.111206 -11.717483
v -7.096247 10.953247 -11.624989
v -9.327127 6.805200 -11.667103
v -9.271210 4.941846 -11.656666
v -8.188334 4.075342 -11.570289
v -5.024171 3.569775 -11.298499
v -0.228706 3.333374 -11.052248
v 7.730933 4.075342 -11.570279
v 8.813806 4.941870 -11.656655
v 8.869715 6.805200 -11.667105
v 6.638830 10.953272 -11.624990
v 2.544786 14.320435 -11.676528
v 4.566772 3.569800 -11.298501
v 15.613372 17.197021 -0.000002
v 21.015039 7.758020 -0.000003
v 20.949568 3.396960 0.000009
v 18.339949 1.349890 0.000016
v 10.786774 0.280505 0.000011
v -0.000004 -0.000098 -0.000006
v 6.275791 24.738684 -0.000007
v -0.000002 26.567982 -0.000006
v 6.930269 26.686646 0.672314
v -0.000005 28.788843 0.672339
v 17.241598 18.019873 0.672361
v 23.206589 7.172729 0.672311
v 23.134275 2.161084 0.672360
v 20.252487 -0.191357 0.672312
v 11.911667 -1.420313 0.672362
v -0.000005 -1.742749 0.672315
v -11.911677 -1.420313 0.672316
v -20.252548 -0.191406 0.672317
v -23.134336 2.161035 0.672318
v -23.206602 7.172705 0.672318
v -17.241610 18.019873 0.672317
v -6.930279 26.686621 0.672340
vn -0.0000 -0.8557 0.5174
vn -0.0000 -0.8991 0.4378
vn 0.4036 -0.7679 0.4974
vn 0.4118 -0.8110 0.4155
vn 0.6715 -0.5633 0.4814
vn 0.6976 -0.5985 0.3940
vn 0.8896 -0.2315 0.3936
vn 0.8466 -0.2079 0.4900
vn 0.8656 0.3730 0.3340
vn 0.7994 0.4157 0.4338
vn 0.4397 0.8876 0.1374
vn 0.3887 0.8875 0.2477
vn 0.0975 0.9952 -0.0010
vn 0.0932 0.9885 0.1187
vn -0.0000 0.9995 -0.0308
vn -0.0000 0.9949 0.1013
vn -0.0934 0.9885 0.1188
vn -0.0976 0.9952 -0.0010
vn -0.3887 0.8875 0.2477
vn -0.4397 0.8876 0.1374
vn -0.7994 0.4157 0.4338
vn -0.8656 0.3730 0.3341
vn -0.8896 -0.2316 0.3937
vn -0.8466 -0.2079 0.4900
vn -0.6976 -0.5985 0.3939
vn -0.6715 -0.5633 0.4814
vn -0.4118 -0.8110 0.4155
vn -0.4036 -0.7679 0.4974
vn 0.3212 -0.6043 0.7292
vn -0.0000 -0.3403 0.9403
vn -0.0000 -0.6740 0.7387
vn 0.1710 -0.3027 0.9376
vn 0.2618 -0.2245 0.9387
vn 0.5245 -0.4425 0.7273
vn 0.3028 -0.0863 0.9492
vn 0.6432 -0.1648 0.7477
vn 0.2757 0.1881 0.9427
vn 0.6061 0.3361 0.7209
vn 0.2994 0.7552 0.5831
vn 0.1186 0.4844 0.8667
vn 0.0738 0.8843 0.4611
vn 0.0101 0.5948 0.8038
vn -0.0000 0.8927 0.4506
vn -0.0000 0.6047 0.7964
vn -0.0102 0.5947 0.8039
vn -0.0738 0.8843 0.4611
vn -0.2994 0.7552 0.5831
vn -0.1187 0.4844 0.8667
vn -0.2757 0.1880 0.9427
vn -0.6061 0.3361 0.7209
vn -0.6432 -0.1648 0.7477
vn -0.3028 -0.0862 0.9492
vn -0.5246 -0.4426 0.7273
vn -0.2618 -0.2245 0.9387
vn -0.3207 -0.6043 0.7293
vn -0.1710 -0.3027 0.9376
vn -0.0000 0.1107 0.9939
vn -0.0873 -0.2934 0.9520
vn -0.2232 -0.2706 0.9365
vn -0.3169 -0.1776 0.9317
vn -0.3170 -0.1776 0.9317
vn -0.2920 0.0042 0.9564
vn -0.2922 0.0044 0.9563
vn -0.1710 0.2134 0.9619
vn -0.0495 0.3427 0.9382
vn -0.0496 0.3427 0.9381
vn -0.0096 0.3610 0.9325
vn 0.0096 0.3610 0.9325
vn 0.0096 0.3611 0.9325
vn 0.0495 0.3426 0.9382
vn 0.0496 0.3427 0.9381
vn 0.1710 0.2134 0.9619
vn 0.2919 0.0042 0.9564
vn 0.3169 -0.1776 0.9317
vn 0.3170 -0.1776 0.9317
vn 0.2232 -0.2706 0.9365
vn 0.0873 -0.2934 0.9520
vt 26.152340 28.407207
vt 26.061764 28.403376
vt 26.189917 28.286987
vt 26.107639 28.250622
vt 26.337322 28.120417
vt 26.282097 28.051260
vt 26.506971 27.950258
vt 26.519978 28.036888
vt 26.630186 27.965330
vt 26.604685 28.047842
vt 26.705902 28.031672
vt 26.649986 28.095491
vt 26.769863 28.198383
vt 26.692974 28.229156
vt 26.786964 28.434149
vt 26.706768 28.430618
vt 26.675877 28.630220
vt 26.749706 28.667467
vt 26.621870 28.759892
vt 26.672163 28.828186
vt 26.572664 28.803572
vt 26.591106 28.887917
vt 26.467045 28.892471
vt 26.487328 28.807224
vt 26.251535 28.772827
vt 26.312422 28.708591
vt 26.094572 28.559444
vt 26.179636 28.530165
vt 26.258867 28.317562
vt 26.362608 28.416107
vt 26.228422 28.410419
vt 26.378067 28.368507
vt 26.441813 28.296017
vt 26.378139 28.182024
vt 26.517372 28.259115
vt 26.522718 28.110222
vt 26.545612 28.261171
vt 26.582205 28.115551
vt 26.609291 28.152134
vt 26.556189 28.278912
vt 26.634178 28.263840
vt 26.567032 28.335430
vt 26.639259 28.427740
vt 26.571838 28.425043
vt 26.559544 28.513916
vt 26.620544 28.590710
vt 26.586252 28.700005
vt 26.543938 28.569248
vt 26.531897 28.586008
vt 26.556150 28.734192
vt 26.496382 28.734406
vt 26.503576 28.585651
vt 26.358316 28.650667
vt 26.431383 28.542486
vt 26.250919 28.505524
vt 26.373997 28.464855
vt 26.504210 28.422136
vt 21.546598 4.249344
vt 21.529364 4.254762
vt 21.576893 4.241139
vt 21.601278 4.230121
vt 21.609558 4.225888
vt 21.615925 4.223038
vt 21.631355 4.215633
vt 21.652391 4.201329
vt 21.672935 4.187129
vt 21.688007 4.179026
vt 21.695034 4.175749
vt 21.703358 4.170288
vt 21.722176 4.159028
vt 21.745644 4.155193
vt 21.758802 4.157870
s 1
usemtl CaveWall
f 23/1/1 57/2/2 22/3/3
f 57/2/2 1/4/4 22/3/3
f 24/5/5 22/3/3 1/4/4
f 1/4/4 2/6/6 24/5/5
f 2/6/6 3/7/7 24/5/5
f 24/5/5 3/7/7 25/8/8
f 3/7/7 4/9/9 25/8/8
f 25/8/8 4/9/9 26/10/10
f 26/10/10 4/9/9 5/11/11
f 26/10/10 5/11/11 27/12/12
f 5/11/11 6/13/13 27/12/12
f 27/12/12 6/13/13 28/14/14
f 6/13/13 55/15/15 28/14/14
f 28/14/14 55/15/15 29/16/16
f 55/15/15 35/17/17 29/16/16
f 35/17/17 55/15/15 54/18/18
f 35/17/17 54/18/18 30/19/19
f 54/18/18 53/20/20 30/19/19
f 53/20/20 31/21/21 30/19/19
f 31/21/21 53/20/20 52/22/22
f 51/23/23 32/24/24 52/22/22
f 32/24/24 31/21/21 52/22/22
f 51/23/23 50/25/25 33/26/26
f 33/26/26 32/24/24 51/23/23
f 50/25/25 56/27/27 33/26/26
f 33/26/26 56/27/27 34/28/28
f 56/27/27 57/2/2 34/28/28
f 34/28/28 57/2/2 23/1/1
f 7/29/29 37/30/30 8/31/31
f 37/30/30 7/29/29 36/32/32
f 38/33/33 7/29/29 9/34/34
f 7/29/29 38/33/33 36/32/32
f 9/34/34 39/35/35 38/33/33
f 39/35/35 9/34/34 10/36/36
f 10/36/36 40/37/37 39/35/35
f 40/37/37 10/36/36 11/38/38
f 40/37/37 11/38/38 12/39/39
f 12/39/39 41/40/40 40/37/37
f 41/40/40 13/41/41 42/42/42
f 41/40/40 12/39/39 13/41/41
f 13/41/41 14/43/43 42/42/42
f 42/42/42 14/43/43 43/44/44
f 14/43/43 49/45/45 43/44/44
f 49/45/45 14/43/43 20/46/46
f 15/47/47 44/48/48 20/46/46
f 49/45/45 20/46/46 44/48/48
f 15/47/47 45/49/49 44/48/48
f 45/49/49 15/47/47 16/50/50
f 45/49/49 17/51/51 46/52/52
f 17/51/51 45/49/49 16/50/50
f 46/52/52 18/53/53 47/54/54
f 18/53/53 46/52/52 17/51/51
f 19/55/55 47/54/54 18/53/53
f 47/54/54 19/55/55 48/56/56
f 8/31/31 37/30/30 19/55/55
f 19/55/55 37/30/30 48/56/56
f 23/1/1 7/29/29 8/31/31
f 7/29/29 23/1/1 22/3/3
f 22/3/3 9/34/34 7/29/29
f 9/34/34 22/3/3 24/5/5
f 9/34/34 25/8/8 10/36/36
f 25/8/8 9/34/34 24/5/5
f 10/36/36 25/8/8 26/10/10
f 10/36/36 26/10/10 11/38/38
f 11/38/38 27/12/12 12/39/39
f 11/38/38 26/10/10 27/12/12
f 12/39/39 28/14/14 13/41/41
f 12/39/39 27/12/12 28/14/14
f 28/14/14 29/16/16 13/41/41
f 13/41/41 29/16/16 14/43/43
f 29/16/16 20/46/46 14/43/43
f 29/16/16 35/17/17 20/46/46
f 35/17/17 15/47/47 20/46/46
f 35/17/17 30/19/19 15/47/47
f 30/19/19 16/50/50 15/47/47
f 31/21/21 16/50/50 30/19/19
f 32/24/24 17/51/51 31/21/21
f 17/51/51 16/50/50 31/21/21
f 18/53/53 32/24/24 33/26/26
f 32/24/24 18/53/53 17/51/51
f 18/53/53 34/28/28 19/55/55
f 34/28/28 18/53/53 33/26/26
f 19/55/55 23/1/1 8/31/31
f 23/1/1 19/55/55 34/28/28
f 36/32/32 21/57/57 37/30/30
f 38/33/33 21/57/57 36/32/32
f 39/35/35 21/57/57 38/33/33
f 40/37/37 21/57/57 39/35/35
f 41/40/40 21/57/57 40/37/37
f 42/42/42 21/57/57 41/40/40
f 43/44/44 21/57/57 42/42/42
f 49/45/45 21/57/57 43/44/44
f 44/48/48 21/57/57 49/45/45
f 45/49/49 21/57/57 44/48/48
f 46/52/52 21/57/57 45/49/49
f 47/54/54 21/57/57 46/52/52
f 48/56/56 21/57/57 47/54/54
f 37/30/30 21/57/57 48/56/56
s 0
f 58/58/58 59/59/58 57/59/58
f 58/58/58 57/59/58 56/58/58
f 50/60/59 58/58/59 56/58/59
f 58/58/59 50/60/59 60/60/59
f 51/61/60 60/60/60 50/60/60
f 60/60/61 51/61/61 61/61/61
f 61/61/62 52/62/62 62/62/62
f 52/62/63 61/61/63 51/61/63
f 63/63/64 62/62/64 52/62/64
f 63/63/64 52/62/64 53/63/64
f 64/64/65 53/63/65 54/64/65
f 53/63/66 64/64/66 63/63/66
f 65/65/67 54/64/67 55/65/67
f 54/64/67 65/65/67 64/64/67
f 6/66/68 65/65/68 55/65/68
f 65/65/69 6/66/69 66/66/69
f 5/67/70 66/66/70 6/66/70
f 66/66/71 5/67/71 67/67/71
f 67/67/72 4/68/72 68/68/72
f 4/68/72 67/67/72 5/67/72
f 69/69/73 4/68/73 3/69/73
f 69/69/73 68/68/73 4/68/73
f 3/69/74 2/70/74 70/70/74
f 3/69/75 70/70/75 69/69/75
f 71/71/76 70/70/76 2/70/76
f 2/70/76 1/71/76 71/71/76
f 71/71/77 57/72/77 59/72/77
f 57/72/77 71/71/77 1/71/77
